<svg xmlns="http://www.w3.org/2000/svg" viewBox="0 0 517.76 165"><defs><style>.cls-2{fill:#4a7020}</style></defs><g id="Layer_2" data-name="Layer 2"><g style="opacity:.15" id="art"><path class="cls-2" d="M57.53 135.37c-7.91-4.38-16.16 2.88-23.32 6.15 4.47 1.78 8.48 1 12.54-1.09-4 4.27-10.22 5.8-16.45 9.15-2.33 1.64-6.72 2-7.76 4.75.19 1.12-2.18 2.43-2.6 1.39-2.49-3.72 12.87-8.15 16.8-10.72 1-1.58-4.53-1.38-5.77-1.86-2.11-.09-6.16 3.61-7.09 2.86 1-1.59-1 .17-1.67-.29 1.35-1.14 3.64-1.79 5.28-2.8-1.26-1.3-7.6-.29-3.9-2.53 2.42-.45 5 1.23 7.4.88 5.32-3.07 11.34-5.06 16.51-8.3-2.75-1.22-7.22-.71-9.28-2.42 1.56-2.62 3.1-9 6.27-8.58-.93 2.49-3.65 5.46-3.65 7.69 4.18.38 8.9 3.38 12.7.68 4.53-2.15 10.11-4.14 14.06-6.63-2.41-1.62-7.84-.88-9.17-3 9.65-16-1.71-4.12-10.06-2 3.13-4.88 10.57-5.9 15.47-9a25.34 25.34 0 0 1 6-6.88c.84.82-3.72 5.29-.9 4.53a28.57 28.57 0 0 0 2.77-1.38c4.23-2.22 9.59-3.82 13.28-6.31 1.82-2.45 2.17-6.72 5.89-7.32-4.36 9.92-1.54 4.76 6.09 2.34 2.75-1.51 6.25-2.11 8.68-4 1.14-3 6.2-8.43-.33-4.91-9.56 2 .9-2.34 4.49-3.64.28-.93-1.12-1.27.75-1.9 6.63.34 13-4.49 19.36-6.54 2.5-.55-.77-1.39-.95-2.43.69-.5 1.8-1.18 2.57-1C135.74 74 141.64 68 146.4 67c1.7-.76 4.68-1.13 5.62-2.48-.39-.56-2.22-1.07-1.11-1.72 1.17-1.21 2.36-.94 3.38.31 4.2 1 9-3.18 13.39-4 5.36-1.64 8-2.29 1.33-5.35 10.82-5.64 28.51-11.15 41.87-15.84.07.44 2 .23.71.63-2.77.52-5.64 2.64-9 3.44-5.08 1.82-13.48 2.83-3.64 6.29 5.54-1.84 11.17-3.72 16.73-5.43 1.49-1.09-2.15-2.64-2.59-3.91 5.14-2.93 3.74 5.38 11.14 1.22 4.52-1.35 9-2.8 13.61-4.09.91-1.21-4.36-3.35-2.46-4.18 2.38-1.67 3.57 1.39 5.24 2.75 6-.09 12.39-3.58 18.6-4.57 1.47-1-1.79-2.49-2.06-3.62 3.17-2 3.91 2 6.41 2.31 6-1.55 12.1-3 18-4.79.45-.87-2.64-2.18-1.35-3 3.49-1.78 3.84 4.34 8.36 1.37 5-1.07 9.85-2.4 14.83-3.46 1.3-.32-1.33-1.59-.34-2 2.9-.92 4.42 2.16 7.51.28 4.55-1.63 11.95-1.23 15.08-4a158.92 158.92 0 0 0 22.68-3.96c8.57-1 18-2.93 26.31-3.11C366.5 9.45 354 9 347.09 12.79c-12.69-.41-28.38 5.33-41.95 7.81-9.09 2.74-22.64 1.42-25.3 12.21 5.92-1.79 14-1.73 18.79-5.4 1.85-2.35 2.33-6.19 6.06-5.82.65 0-.13.86-.3 1.08a4.2 4.2 0 0 1-3.47 2.95c1.79.24 1.17.6.67 1.86 3.44.29 7.76-1.77 11.57-1.83 1.25.13 3-1.47 3.88-1-.13.64.71.27 1 .27.51-.05 0-.62.36-.75a9.75 9.75 0 0 0 4.61.59c.9.67.84-.86 1.68-.33.23 0 2.17-.44 1.51.22-6.07.21-10.1 7.37-11.26 12.23 4.11 2.41 7.35 7.86 12.53 6.55 4.94-1.42 10.41-.63 15.48-1.57-4.88 1.59-10.22 2.6-15.41 3.77C332.78 53 340 50 347.38 50.49c3.75.34-8.55 1.61-10.87 2.17-1.86-.2-1.09 3.27-2.4 2.78-.05-.14 0-.37-.19-.39-2.54 1.48-.45-2.36-2.63-1.4-6.29 1.4-14.38 1-18.85 4.74-.79.07-1.28.28-1.39-.72-1.93-.75-4.92.7-7.18.74-4.42 1-9.16 1.87-13.62 3.25-4.63.91-19.47 1.78-20.2 6.19-.08-1-.93.31 0 0-1.29 1.09-3.06 1-1.95-1-2-.94-17.56 2.6-19.05 5 .39 1.39-1.07 1-1.92 1.62-2.12-.09 1.86-3.48-3.07-1.48-5 1.66-11.77 1.88-15.87 4.77a1.7 1.7 0 0 1-2.08 1.89c-.66-.08-1-.48-.67-1.13-2.13-1.25-7.6 1.77-10.69 2.29-2.45.79-5.27 1.1-7.49 2.29-.41 1.29-.57 2.64-2.22 2.69 1.94.49-2.59 2.69-.66-1.49-2.06-.94-6.32 1.72-9.08 2.13-2.9 1.09-6.86 1.41-9.2 3.26.26 2.31-4.31 4.69-2.82 1.23-.66-1.73-6.61 1.79-8.69 2-2.94 1.47-8.06 1.26-9.68 4.22.42 1.49-2.16.86-2.11 1.91 2.77-1.42 1.74.72.58 2.26-1.06 1.7-3.83 1.54-5.42 2.67-1.78-.36 3.24-1.36 3.65-2.48.17-1.69 2.17-5.43-1-4-6 2.86-14.53 2.73-17.6 8.69-3.41 2.09-.15-1.67-1.93-1.88-6.8 2.75-14.66 4.06-19.63 8.92-1 .46.05-1.79-1-1.38-1.44.74-3.11 1-4.48 1.82a55.56 55.56 0 0 0-15.35 7.23c-.79-2.57-5.93 1.84-8.26 2-3.09 1.48-6.55 2.46-9.42 4.15-.06 1.68-1.34 2.34-2.75 2.85 2.16-5.82-22.42 10-19.39 5.57-1.08-.35-2.1 1.28-3.34 1Zm25.52-32.52c-8.61 3.43-20.82 7-21.69 17.21 9.45 4.73 18.31-1.23 26.72-5.3-12.06-3.69-9.7-1-5.07-12Zm223.34-55.54c13.67-3.6 19 .44 5.5-10.65 1.35-3.18 5.48-7.06 5.48-9.91-6.11 1.76-14.16 1.36-19.1 5.07-1.26 3.13-5.41 6.66-5 9.74 4.36 2.26 7.73 8 13.12 5.75Zm-23.67 5.07c16.4-5.29 21.28 1 7.53-11.4 1.23-2.95 5.38-6.95 5.15-9.46-6.06 1.7-13.45 2-18.74 5.09-1.25 3.19-5.47 6.93-5.09 10 3.69 1.73 6.88 6.53 11.15 5.77Zm-22.31 5.28c10.35-4.24 25.68-.7 7.95-10.7.82-3.44 5-7 5.41-10.2-6 1.9-14.25 2.1-19 5.72-1.53 4.24-8.19 8.9-1.95 11.57 2.62.64 4.68 4.09 7.59 3.61Zm-21.77 5.6c5.71-1.73 11.54-2.88 17.24-4.6-1.42-2.17-6-3.77-8.44-5.69-1.3-2.73 3.8-7.13 4.84-10.28-5.3.93-18.14 2.51-20.7 8.19-5.29 8.77-3.75 7.12 7.06 12.38Zm-21.88 6c9.11-4.2 27.19-2.26 8.9-10.52-.47-3.11 4.7-7.23 4.84-10.38-5.84 1.67-11.76 3.44-17.6 5.27-7.37 8.7-7.23 11.72 3.86 15.63Zm-21 6.31c5.25-1.59 10.47-3.31 15.74-4.71 4.54-1.37-5.86-4.19-7.43-5.93 0-3 5.51-7.67 4.56-9.9-7.49 2.97-17.4 2.73-20.92 10.97 0 1.62-3.46 4.17-1.46 5.26 3.17 1.25 6.21 3.6 9.52 4.31Zm-21.09 6.79c5.63-2.21 11.94-3.38 17.28-5.87-10.34-6-11.09-2.63-4.22-13.86-2.54-1.63-12.94 4.34-17.11 5-7.95 9.93-8.29 10.77 4.06 14.73Zm-21 7.18c16-7.27 23.87-3 7.93-11.06 1-2.9 5-6.94 4.47-9.31-5.71 2.71-12.87 3.62-18 7.23-6.49 10.77-5.58 9.22 5.64 13.14Zm-21.05 7.64c5.81-2.25 11.87-4.08 17.49-6.58-13.09-5.11-8.73-3.19-5.07-13.57-6.26 3.27-16.2 3.44-19.43 10.32-6.06 8.05.51 7.26 7.05 9.83Zm-8-12.07c-9 3.43-21.3 6.12-22.35 17 9.45 5.37 17.87-.24 26.83-3.69-10.51-5.42-10.95-.89-4.49-13.31Zm-33.24 28.58c5.66-2.45 11.36-4.84 17.07-7.06-1.71-1.91-6.44-2-9.07-3.49-.21-2.77 4.48-6.86 4-9.38-6.54 3.66-16.38 4.32-19.61 11.61-4.95 8.42.03 5.09 7.61 8.32Zm225.69-59.64c8.44-1.76 19.86-1.54 5.3-7.69C317 47.85 311 48 305.92 49.84c3.14 2.97 6.57 6.16 11.15 4.21ZM306.43 56c4.55-.1-.36-2.36-1.86-3.74-5.56-4-13.69 1.66-20.16 2 4.92 7.62 14.45 2.99 22.02 1.74Zm-48.07-17.53c8.06-2.58 20.29-2.56 21.66-12-7.66 2.6-21.02 2.53-21.66 12Zm-21.66 6.06c7.77-3 19.68-2.5 21.3-12.19-7.64 2.25-21.3 3.37-21.3 12.19Zm34.27 19c3.22-1.76 21.15-2.16 13.27-5.88-5.78-5.37-13.93.87-20.82 1.23-1.3 1.2 5.92 5.43 7.58 4.69Zm-55.69-12.7c5.84-2.95 15.58-2 19-8.14.36-1.08 3.55-4.35 1.86-4.29-7.32 2.77-20.92 3.6-20.86 12.47Zm33.65 18c6.54-3.22 24.52-1.66 10.05-8.74-5.57 1.24-11.98 2.91-17.67 4.58 2.22 1.5 4.9 4.01 7.62 4.17Zm-21.39 5.54c5.64-3 24.31-2.42 10.65-8.48-5.74.24-11.84 2.92-17.5 4.4-1.69.43 5.71 4.25 6.85 4.09Zm-33.39-16.74c7.29-3.07 19.46-3.42 20.32-12.48-5.82 2-12.34 3.23-17.66 6-.42 1.72-4.66 6.07-2.66 6.48Zm12.15 22.7c3.25-2.17 23-3.59 13-7.22-4.47-3.32-10 1-14.86 1.8-9.33 1.74-3.38 3.71 1.86 5.42Zm-33.6-15.42c7.5-3.39 18.62-3.26 20.59-12.79-6.94 2.57-20.99 4.32-20.59 12.79Zm12.36 21.74c2.14-1.47 22-4.48 14.79-6.58-5.83-4.39-12.39.7-18.66 2.09-7.19 1.08 1.15 3.77 3.87 4.49Zm-13-26.9c-5.67.94-11.68 4.21-17.38 6-.72 1.11-4.57 6.58-3.35 7 7.67-3.75 17.92-3.58 20.67-13Zm-7.86 33.67c5.29-2 11.93-3.26 16.53-5.74-6-4.84-11.8-1.47-18.15.61-9.31 2.51-4.37 3.25 1.59 5.13Zm-34-12.49c7.52-3.89 18-4 20.58-13.43-.15-.42-1.37.38-1.86.38-5.46 3.41-14.61 3-17.26 9.39-.41.73-2.47 3.25-1.51 3.66Zm29.56 13.6c-7.56-5.51-15.44.88-23.15 3.12-1.63.58 6.17 3.57 7.05 2.85 5.12-2.05 11.5-3.32 16.05-5.97Zm-50.24-5.28c7-3.69 17-3.94 19.74-12.36 1.32-2.06-.67-.88-1.79-.48-6.4 3.15-17.77 4.8-18 12.84Zm12.81 19.18c5.2-2.41 12.2-3.91 16.64-6.56-6-4.44-11.56-.72-17.57 1.41-8.48 3.13-6.1 2.72.88 5.15Zm54.44-52.57c5.73-2.33 13-3.8 17.89-6.61-3.15-5.45-7.92-1.62-12.51-.26-4.34 1.76-13.71 3.14-5.43 6.87Zm-75.17 60.52c5.11-2.41 12.66-4 16.62-7-6.69-4.12-12.88.47-19.32 2.87-7.67 2.37-1.12 2.86 2.7 4.13Zm-10.73-.67C85.46 118 79.66 120 74.53 122.9c4.89 2.07 7.73 2.28 12.37-.42 5.67-2.86 17.33-4.73 3.97-6.77Zm-13.41 10.47c-7.68-4.14-15.14 2.46-22.1 5.1-2.91 1.43 3.88 1.61 5.09 2.25a94.58 94.58 0 0 0 17.01-7.35Zm254.91-83c-.24.11-.56.06-.66.31.37.51 1.89-.28.66-.31Zm-85.08 29v-.08c0 .01-.06.04 0 .04Zm21.93-5.32c-.12 0-.06.08-.05.16s.14-.13.05-.2Z"/><path class="cls-2" d="M374 44.63a66.69 66.69 0 0 1 13.76.74c-2.32.8-5.24.7-7.78 1-2.14.52-1 4-4 3.28-1.08-.1.07-1.59.06-2.23-3.6-1-9.23 1.24-13.47 1.33-5.7.74-11.76.47-17.67.65 11.72-2.29 5.59-.19 3.26-5.61 2.94-.39 4.95 1.29 6.92 3.25 5.77.55 13.34-1 18.93-2.46ZM342.76 39.94c-2.28-2.19-9.91-5.42-8.3-8.26 1.73-2.45 3.3-8.73 6.86-8 .23 2.73-5.62 6.51-4.19 9.25a73.66 73.66 0 0 1 7.51 6.29c-.43.48-1.81 0-1.9.78ZM360.64 22.18c.74-.17 1.85-.33 1.33.67-6.89 7.1.76 8.32 5.33 13.47-.93.57-5 .18-3.43-1.15-.66-.23-1.49-.1-2-.82-6.32-4.25-7.61-7.26-1.23-12.17ZM406.76 29.31c2.43-1.4 3.67 1.1 5.52 1.78 6.83-.46 14-2.16 20.33 0-1.27.69-23.31-.41-19.33 1.49-2.68 1.5-10.31-1-12.08 1.05-3.87.58.7-.15-.53-.81 1.3-1.86 11.22.46 6.1-3.53Zm3.18 2.79c.19-.19.22-.26 0-.43-.2.14-.16.21 0 .43Zm1.78.13.11-.26c-.31-.19-.51.16-.11.26ZM381.56 21.3c.35 0 .48-.08.74 0-.14.3-.75.35-.93.52 2.42.45-1.54 2.47-.84 3.34.91 1.23 11.46 9.26 7.18 8.29-.16-.6-.59-.07-.59.31a32.46 32.46 0 0 1-6.12-5.4c-4.17-1.6-3.27-5.79.56-7.06Z"/><path class="cls-2" d="M400.63 22.3a3.37 3.37 0 0 1 3.62 1.47c8.17 7.37-1.73 3.21-4.38-1.22a2.13 2.13 0 0 1 .76-.25ZM431.75 27.94c-2.51.85-5.08-3.37-6.63-5a5.44 5.44 0 0 1 2.91.07c.51 1.14 5.62 4.41 3.72 4.93ZM57.5 135.35c-.08 1.07-2 .94-2.1 2.28-2.41.88-5.91 4-8 2.35 3.3-1.55 6.74-3.25 10.17-4.61ZM5.06 162.06c.62-2.87 5.13-3.51 7.33-5.22 4.42-1.64-5.7 5.06-7.33 5.22ZM355.22 54.46c-3 .64-1.63-1.69-1.05-3.48 1.24-1.34 3.53-.19 2 1.72-.59.55.12 1.83-.95 1.76ZM18.3 147.85c-1.94 1.6-4.51 3.68-6.29 5.33-2.09-2.64 3.99-4.51 6.29-5.33ZM323.34 20.93c-3.17 1.05.09-3.94 2.07-2.95 2.11-.48-.05 2-1.1 2.17 1.17.61-.38.68-.97.78ZM385 34.46c5.24-.24 10.77-.31 15.95-.05-5.62.79-12.13.28-17.94.47a2.39 2.39 0 0 1 1.99-.42ZM398.88 49.23c-3 .49-2.24-.91-1.52-3 2.07-1.23 3.34 1.3 1.52 3ZM223.34 34.44a38.15 38.15 0 0 0 6.14-1.59c-3.07 2.36-9.07 2.71-13.14 4.2-.93.2-1.23.17-1.13 0 2.63-.99 5.4-1.8 8.13-2.61ZM15.69 151.81c5.8 0 0 3.46-2.37 1.34.73-.42 1.62-.98 2.37-1.34ZM454.6 27.29c-1.3.51-3.67-1.38-3.4-2.37 1.5-.84 6.11 2.25 3.4 2.37ZM61.76 138.53a2.54 2.54 0 0 1-2.09 1c-.93-3.27 4.14-6.2 2-1 0-.34-.4-.48-.5-.11.25.06.43.17.59.11ZM52.9 144.38c7.43-6.28 9.77-3.22 0 0ZM376.09 53c-1.2.28-2.59-.91-.88-1.43.38.49.82.09 1.26.14 1.35-.2.8 1.53-.38 1.29ZM344.53 57.14c1.13.06 3.21-.29 3.91.17-1.16.74-7.14.5-3.91-.17ZM339.25 41.78c-5.74.82-.3-.6 2.38-.81 2.03.34-2.02.56-2.38.81ZM379.34 52.61c.78-.06 2.23-.57 2.63.22-.24.26-.85.09-1.18 0-.62-.19-1 .86-1.54.18-.76-.01-.25-.7.09-.4ZM213.68 37.9c-.41.13-2.37 0-1.86-.5.91.01 4.29-.1 1.86.5ZM342.07 42.68c2.68-.34-.66.65-1.63.37a3.21 3.21 0 0 1 1.63-.37ZM345.29 19.74a24.69 24.69 0 0 1-3.31.39c.78-.36 5.02-.92 3.31-.39ZM381.69 35.05c-.49.17-1.71 1.09-2 .47-.03-.68 1.57-.85 2-.47ZM333.74 56.59c-.36 0-2.38.14-1.55-.55.49-.11 2.97.16 1.55.55ZM342 22.42c-.63 0-1.39.35-2 0 .39-.41 3.46-.72 2 .06ZM5 164.24c-.15.36-.89 1-1.23.67-.29-.61.7-1.44 1.23-.67ZM290.42 64.09c-1.3.2-1.34-.28 0-.41 1.96-.31.86.38 0 .41ZM290.54 63.15c-.39 0-.84.27-1.17 0a3.57 3.57 0 0 1 2.4-.35c-.28.37-.83.2-1.23.35ZM376.27 36c-.43 0-.93.29-1.29 0 .87-.84 4.21-.29 1.29 0ZM392.28 36.22c-.38 0-.67.07-.86-.24-.28-.84 1.88-.31.86.24ZM373.75 36.09c1.89.35.09.77-.77.59.13-.3.55-.41.77-.59ZM342.74 40c.73 0 1.47-.12 2.19 0-.62.12-1.9.91-2.17 0ZM380.51 58.55c-.25 0-.5.1-.71-.06a1.14 1.14 0 0 1 1.39-.19 1.18 1.18 0 0 1-.68.25ZM337.47 22.3a1.62 1.62 0 0 1 .79 0 1.93 1.93 0 0 1-1.59.23.73.73 0 0 1 .8-.23ZM397.1 33.93c-.07 0-.45.07-.48-.14.29-.62 2.31-.18.48.14ZM349.92 57.16c.29 0 1.07-.16.79.23-.46.24-1.86.2-.79-.23ZM1.85 160.77c-.62-.26.85-1 .83-.76a2.33 2.33 0 0 1-.83.76ZM382.65 58.63c-.94-.21.57-.43.9-.26-.24.19-.55.16-.9.26ZM342.44 57.46c.88.09-.31.64-.56.28-.02-.31.34-.21.56-.28ZM441.21 50.67c1-.08.27.54-.26.3ZM323.9 21.27c.77 0 0 .64-.36.3-.05-.19.23-.24.36-.3ZM350.57 40.64c.22 0 .44-.07.64 0-.27.18-.65.38-1 .2.14-.04.22-.2.36-.2ZM403.33 33.45c.93 0-.16.66-.48.22a.66.66 0 0 1 .48-.22ZM59.72 135.57l-.34.32c-.28-.21-.18-.41 0-.66ZM403.59 2.38c-.38 0-.54.12-.78-.06a1.41 1.41 0 0 1 1.46-.18ZM442.38 28.43c-.05.28-.48.27-.67.12a.42.42 0 0 1 .67-.12ZM453.14 27.64l.39.48c-.4.32-.72-.05-.39-.48ZM350 43.52c-.76 0 .1-.62.38-.23a.48.48 0 0 1-.38.23ZM353.65 55.06c.81 0-.23.57-.45.24-.04-.3.27-.17.45-.24ZM446.54 52.37c-.77-.1.2-.65.46-.21a.54.54 0 0 1-.46.21ZM365.25 54.41c-.13.19-.67.22-.55-.07.2-.02.45-.19.55.07ZM405.49 33.91c-.82.06.1-.73.32-.23.03.16-.22.21-.32.23ZM375.62 6.72a.56.56 0 0 1-.44 0 1.16 1.16 0 0 1 1.07-.17 3.78 3.78 0 0 1-.63.17ZM379.07 35.71c-.2.27-.29.22-.49 0 .06-.27.25-.13.49 0ZM52.87 144.36c-.31 1-1.27 0 0 0ZM401.56 21.26c-.71.08 0-.68.28-.2-.09.08-.15.2-.28.2ZM415.25 48.63l.33.15a.33.33 0 0 1-.54.07ZM360.47 58.08c-.68-.08.24-.4.5-.2a1.81 1.81 0 0 1-.5.2ZM346.78 42.49c.12.3-.44.38-.58.25s.38-.33.58-.25ZM418.42 0a1 1 0 0 1 .34 0c-.24.44-1.08.14-.34 0ZM48.37 118.64c.12.81-1.35.12 0 0ZM0 161.83c.09-.43.46-.37.76-.44-.05.42-.4.4-.76.44ZM462.59 51.22c-.22.07-.38.18-.47-.1.22-.04.35-.2.47.1ZM459.12 51.42l-.2-.11a.35.35 0 0 1 .57-.15.41.41 0 0 1-.37.26ZM399.19 32.62a.92.92 0 0 1-.37 0 1.14 1.14 0 0 1 .73-.08 2.29 2.29 0 0 1-.36.08ZM457.91 51.22l.31.08c-.12.18-.24.28-.46.18ZM400.81 51.1l.27.22c-.17.16-.32.12-.5 0ZM352.23 56.18c.28-.11.38-.24.57 0-.22.16-.27.2-.57 0ZM465.16 27.43l-.32-.17c.12-.24.3-.17.52-.11ZM391.46 33.87c-.9 0-.17-.5.29-.26ZM512.37 29.75l-.37-.15c.23-.28.69-.2.37.15ZM411.67 57.45l.22.13c-.18.14-.3.27-.46 0ZM230.62 32.32c.3-.15.37-.27.61-.08-.23.2-.23.26-.61.08ZM394.81 33.61c-.15 0-.26.11-.37 0a.92.92 0 0 1 .37 0ZM434.68 50.24c-.18.12-.27.14-.36-.09.18-.06.27-.15.36.09ZM100.28 87.83c-.23.18-.28.22-.44 0 .16-.17.22-.09.44 0ZM7.6 151c0 .33-.16.2-.37.19.01-.27.19-.19.37-.19ZM450.44 29.48l.36.17c-.18.35-.56.2-.36-.17ZM517.55 31.36h-.21a.35.35 0 0 1 .42-.07ZM362.55 17.87c.21.23.22.29 0 .5-.15-.18-.17-.24 0-.5ZM3.29 160.8c-.23.18-.28.23-.42 0 .13-.19.21-.1.42 0ZM349.37 42.51c0 .28-.12.2-.31.17 0-.23.13-.18.31-.17ZM321.59 23.69l.3.17c-.2.05-.4.22-.59.07ZM444.15 28.78c-.36-.26 0-.5.22-.18ZM414.78 32.73c.16.12 0 .23-.08.05ZM409.47 49.73c-.3.09-.36.19-.58.07.22-.24.22-.3.58-.07ZM362 56.17l-.13-.08c.12-.08.19-.2.28 0ZM393.91 43.39l-.26-.09c.11-.24.28-.15.48-.08ZM345.6 15.23l-.26-.12c.08-.33.49-.2.26.12ZM59.67 139.57c.28.69-.6.47 0 0ZM468 52.85c-.16 0-.28.15-.36 0a.36.36 0 0 1 .36 0ZM248.31 74.85c-.17.22-.23.26-.44.09.13-.22.19-.21.44-.09ZM361.4 18.33l-.21-.15c.17-.17.33-.13.53 0ZM516.17 31.57c-.19.13-.27.11-.35-.11.18-.06.27-.15.35.11ZM39.66 149.38c.19-.19.25-.22.44-.06-.1.22-.2.22-.44.06ZM450 56.24c-.17.22-.23.24-.43.1.11-.21.18-.19.43-.1ZM458.93 27.93l.17.22c-.17.09-.29.14-.4 0ZM82.11 128.9c-.17.12-.26.14-.34-.09.17-.04.23-.13.34.09ZM341.8 23c-.07.12-.15.13-.22 0s.14 0 .22 0ZM2.52 161.37c-.14.06-.24.15-.3-.05.15-.08.21-.17.3.05ZM6.8 151.6c0 .06 0 .08-.1.06v-.1ZM302.45 16.48c-.22-.17-.26-.24 0-.37.15.04.07.19 0 .37ZM353.3 57.7h.08c-.07.05-.12.12-.21.06ZM398.57 51.32h-.09c0-.06.09-.14.16 0ZM41.94 148.16h.17c-.08.09-.14.12-.24 0ZM355.61 57.76c-.08.23-.15.15-.31.1.04-.21.15-.14.31-.1ZM434.14 30.88c-.1.09-.15.12-.23 0s.15-.03.23 0ZM462.74 27.19c.07 0 .15-.09.2 0s-.16.09-.2 0ZM446.62 17.5h-.15c.06-.08.14 0 .22 0ZM403.48 51.44l-.15-.07a.18.18 0 0 1 .29 0ZM46.9 119.31h.17c-.1.11-.16.21-.29.08ZM335.06 22.78c-.1 0-.17.11-.21-.05.08 0 .15-.07.21.05ZM37.9 150.33l.14.08-.17.15c-.11-.1-.12-.16.03-.23ZM467.6 27.37c-.15 0-.28.11-.32-.09.17-.06.25-.18.32.09ZM453.33 29.91l-.17-.16c.14-.08.26-.16.38 0ZM460.74 51.42l-.11.12-.13-.18c.12-.1.19-.09.24.06ZM214 36.73c.14 0 .2.1.11.19s-.11-.07-.11-.19ZM213.34 36.93c0 .08 0 .09-.12.06s.04-.1.12-.06ZM404.87 52.74l.1.06c-.06.06-.11 0-.17 0ZM18.5 155.45l-.21-.09c.11-.31.42-.2.21.09ZM.8 161.39c0-.68.64-.17 0 0ZM101.35 87.32c-.15.07-.25.16-.32-.06.16-.08.22-.19.32.06ZM443.77 50.06l.14.06c-.07 0-.14.11-.23.05ZM438.33 50.65l-.16-.06.13-.2.17.16ZM18.91 147.52c-.09-.11-.11-.23.06-.23s.03.19-.06.23ZM258.67 25c.09 0 .11 0 .07.11ZM390.72 35.76v.08h-.13c.03-.05.05-.08.13-.08ZM8.76 151.39h-.08v-.12c.09.03.11.06.08.12ZM414.48 4.83h-.05c.07-.08.08 0 .13 0ZM256.56 25.33l.07-.02-.02.07-.05-.05zM417.36 55l.18.11c-.09.12-.16.13-.28 0ZM445.7 51.85c0 .07 0 .09-.07.08s.01-.08.07-.08ZM247.3 75.1l-.13-.07c.11-.15.23-.09.13.07ZM57.64 136.49c-.1 0-.13 0-.13-.05ZM502.4 38l-.08-.05ZM383.4 55.07c.06-.19.16-.1.3 0-.1.07-.18.09-.3 0ZM394.06 4c-.07.06-.09 0-.11-.05s.1-.03.11.05ZM303.19 16.12h.07v.12c-.04-.03-.07-.05-.07-.12ZM466.17 53l.16.08c-.09.13-.17.14-.29 0ZM46 120h-.09v-.14c.09.04.14.07.09.14ZM448.36 29.67h-.13ZM371.54 56.32h.08c0 .07 0 .1-.1.06ZM406.77 29.29v-.2c.07.06 0 .14 0 .22ZM250.25 27.06l-.02.05-.03-.05h.05zM417.79 48.95l-.01-.07.08.02-.07.05zM184.07 91.88v.09c-.15-.07-.07-.22 0-.09ZM60.16 135.66l.08.03-.08.03v-.06zM477.22 27.97l-.07-.03.07-.03v.06zM427.43 49.55l-.06.03.01-.06.05.03zM363.29 17.85h.06v.1c-.02-.02-.06-.03-.06-.1ZM382.75 52.64c.05 0 .05.07 0 .12s-.04-.07 0-.12ZM210.87 37.94v-.06a.09.09 0 0 0 0 .06ZM373.99 44.6h-.04l.02.03.02-.03zM.06 161.82H0Z"/></g></g></svg>